Fragile 
http://www.imdb.com/title/tt0422272/

Source  :

Fragile[2005]DvDrip[Eng]-aXXo (couldnt find a BRip grrrr! )


Info    :

ID                               : 1
Format                           : AVC
Format/Info                      : Advanced Video Codec
Format profile                   : Baseline@L2.0
Format settings, CABAC           : No
Format settings, ReFrames        : 3 frames
Codec ID                         : avc1
Codec ID/Info                    : Advanced Video Coding
Duration                         : 1h 37mn
Bit rate mode                    : Variable
Bit rate                         : 395 Kbps
Width                            : 464 pixels
Height                           : 192 pixels
Display aspect ratio             : 2.40:1
Frame rate mode                  : Constant
Frame rate                       : 25.000 fps
Color space                      : YUV
Chroma subsampling               : 4:2:0
Bit depth                        : 8 bits
Scan type                        : Progressive
Bits/(Pixel*Frame)               : 0.177
Stream size                      : 275 MiB (75%)
Writing library                  : x264 core 79

ID                               : 2
Format                           : AAC
Format/Info                      : Advanced Audio Codec
Format version                   : Version 4
Format profile                   : LC
Format settings, SBR             : No
Codec ID                         : 40
Duration                         : 1h 37mn
Bit rate mode                    : Variable
Bit rate                         : 128 Kbps
Maximum bit rate                 : 155 Kbps
Channel(s)                       : 2 channels
Channel positions                : Front: L R
Sampling rate                    : 48.0 KHz
Stream size                      : 89.1 MiB (24%)


Screens :  
http://img686.imageshack.us/img686/2392/vlcsnap00001o.png 
http://img194.imageshack.us/img194/5305/vlcsnap00002yr.png 
http://img689.imageshack.us/img689/6140/vlcsnap00003p.png 
http://img707.imageshack.us/img707/2104/vlcsnap00004v.png 
http://img39.imageshack.us/img39/160/vlcsnap00005tc.png 
http://img59.imageshack.us/img59/5791/vlcsnap00006yv.png


PLEASE LET THE TORRENT SEED AND SHARE IT WITH ALL YOU KNOW!

Let me know what I can do to be your trusted source of Handheld videos. 
http://thepiratebay.org/user/on.off.on/ -OOO